<svg width="570" height="725" viewBox="0 0 570 725" fill="none" xmlns="http://www.w3.org/2000/svg">
<rect x="62.4766" y="104.5" width="59" height="59" fill="white" stroke="black"/>
<path d="M106.973 149H76.9727V119H106.973V149ZM86.9727 128.982V138.982H96.9727V128.982H86.9727Z" fill="black"/>
<rect x="150.477" y="104.5" width="59" height="59" fill="white" stroke="black"/>
<rect x="157.977" y="112.008" width="13" height="13" fill="black"/>
<rect x="173.977" y="112.008" width="12" height="13" fill="black"/>
<rect x="188.977" y="112.008" width="13" height="13" fill="black"/>
<rect x="157.977" y="128" width="13" height="12" fill="black"/>
<rect x="173.977" y="128" width="12" height="12" fill="black"/>
<rect x="188.977" y="128" width="13" height="12" fill="black"/>
<rect x="157.977" y="143" width="13" height="13" fill="black"/>
<rect x="173.977" y="143" width="12" height="13" fill="black"/>
<rect x="188.977" y="143" width="13" height="13" fill="black"/>
<rect x="414.477" y="104.5" width="59" height="59" fill="white" stroke="black"/>
<path d="M443.498 117.992C448.759 117.992 453.024 122.257 453.024 127.519C453.024 128.872 452.741 130.16 452.231 131.326L452.235 131.332L444.712 150.9C444.387 151.744 443.199 151.758 442.854 150.923L434.762 131.331L434.763 131.329L434.765 131.327C434.255 130.161 433.971 128.873 433.971 127.519C433.971 122.257 438.237 117.992 443.498 117.992ZM443.479 123.985C441.546 123.985 439.979 125.553 439.979 127.485C439.979 129.418 441.546 130.985 443.479 130.985C445.412 130.985 446.979 129.418 446.979 127.485C446.978 125.553 445.411 123.985 443.479 123.985Z" fill="black"/>
<rect x="502.477" y="104.5" width="59" height="59" fill="white" stroke="black"/>
<path d="M525.44 142.199C524.464 142.199 523.593 142.031 522.826 141.695C522.064 141.358 521.46 140.892 521.015 140.295C520.575 139.694 520.338 138.998 520.305 138.207H522.535C522.563 138.638 522.708 139.012 522.968 139.33C523.233 139.642 523.579 139.884 524.005 140.054C524.431 140.224 524.905 140.31 525.425 140.31C525.998 140.31 526.505 140.21 526.945 140.011C527.39 139.812 527.738 139.536 527.989 139.18C528.24 138.821 528.366 138.406 528.366 137.938C528.366 137.45 528.24 137.021 527.989 136.652C527.743 136.278 527.381 135.984 526.903 135.771C526.429 135.558 525.856 135.452 525.184 135.452H523.955V133.662H525.184C525.724 133.662 526.197 133.565 526.604 133.371C527.016 133.177 527.338 132.907 527.57 132.561C527.802 132.211 527.918 131.801 527.918 131.332C527.918 130.883 527.817 130.492 527.613 130.161C527.414 129.824 527.13 129.562 526.761 129.372C526.396 129.183 525.965 129.088 525.468 129.088C524.995 129.088 524.552 129.176 524.14 129.351C523.733 129.521 523.401 129.768 523.146 130.089C522.89 130.407 522.753 130.788 522.734 131.233H520.61C520.634 130.447 520.866 129.756 521.306 129.159C521.751 128.562 522.338 128.096 523.067 127.76C523.797 127.424 524.606 127.256 525.496 127.256C526.429 127.256 527.234 127.438 527.911 127.803C528.593 128.162 529.119 128.643 529.488 129.244C529.862 129.846 530.047 130.504 530.042 131.219C530.047 132.033 529.819 132.724 529.36 133.293C528.906 133.861 528.299 134.242 527.542 134.436V134.55C528.508 134.696 529.256 135.08 529.786 135.7C530.321 136.321 530.586 137.09 530.582 138.009C530.586 138.809 530.364 139.526 529.914 140.161C529.469 140.795 528.861 141.295 528.089 141.659C527.317 142.019 526.434 142.199 525.44 142.199ZM538.33 142.241C537.208 142.237 536.249 141.941 535.454 141.354C534.658 140.767 534.05 139.912 533.629 138.79C533.207 137.668 532.996 136.316 532.996 134.734C532.996 133.158 533.207 131.811 533.629 130.693C534.055 129.576 534.665 128.723 535.461 128.136C536.261 127.549 537.218 127.256 538.33 127.256C539.443 127.256 540.397 127.552 541.192 128.143C541.988 128.731 542.596 129.583 543.018 130.7C543.444 131.813 543.657 133.158 543.657 134.734C543.657 136.321 543.446 137.675 543.025 138.797C542.603 139.914 541.995 140.769 541.2 141.361C540.404 141.948 539.448 142.241 538.33 142.241ZM538.33 140.345C539.315 140.345 540.085 139.865 540.638 138.903C541.197 137.942 541.477 136.553 541.477 134.734C541.477 133.527 541.349 132.507 541.093 131.673C540.842 130.835 540.48 130.201 540.006 129.77C539.538 129.334 538.979 129.116 538.33 129.116C537.35 129.116 536.581 129.599 536.022 130.565C535.463 131.531 535.182 132.921 535.177 134.734C535.177 135.946 535.302 136.972 535.553 137.81C535.809 138.643 536.171 139.275 536.64 139.706C537.109 140.132 537.672 140.345 538.33 140.345Z" fill="black"/>
<rect x="326.477" y="104.5" width="59" height="58.9961" fill="white" stroke="black"/>
<line y1="-0.5" x2="19.7984" y2="-0.5" transform="matrix(0.70713 -0.707084 0.70713 0.707084 326.975 162.992)" stroke="black"/>
<line y1="-0.5" x2="19.7984" y2="-0.5" transform="matrix(0.70713 -0.707084 0.70713 0.707084 370.973 119.008)" stroke="black"/>
<line y1="-0.5" x2="7.07084" y2="-0.5" transform="matrix(0.70713 -0.707084 0.70713 0.707084 326.975 143)" stroke="black"/>
<line y1="-0.5" x2="22.6267" y2="-0.5" transform="matrix(0.70713 -0.707084 0.70713 0.707084 348.977 157)" stroke="black"/>
<line y1="-0.5" x2="11.3133" y2="-0.5" transform="matrix(0.70713 -0.707084 0.70713 0.707084 349.975 164)" stroke="black"/>
<line y1="-0.5" x2="18.3842" y2="-0.5" transform="matrix(0.70713 -0.707084 0.70713 0.707084 333.973 164)" stroke="black"/>
<line y1="-0.5" x2="5.65667" y2="-0.5" transform="matrix(0.70713 -0.707084 0.70713 0.707084 341.975 164)" stroke="black"/>
<line y1="-0.5" x2="26.8692" y2="-0.5" transform="matrix(0.70713 -0.707084 0.70713 0.707084 366.977 146.992)" stroke="black"/>
<line y1="-0.5" x2="21.2125" y2="-0.5" transform="matrix(0.70713 -0.707084 0.70713 0.707084 370.973 135.992)" stroke="black"/>
<line y1="-0.5" x2="26.8692" y2="-0.5" transform="matrix(0.70713 -0.707084 0.70713 0.707084 360.977 135.992)" stroke="black"/>
<line y1="-0.5" x2="26.8692" y2="-0.5" transform="matrix(0.70713 -0.707084 0.70713 0.707084 333.973 148)" stroke="black"/>
<line y1="-0.5" x2="21.2125" y2="-0.5" transform="matrix(0.70713 -0.707084 0.70713 0.707084 337.975 137)" stroke="black"/>
<line y1="-0.5" x2="19.7984" y2="-0.5" transform="matrix(0.70713 -0.707084 0.70713 0.707084 332.973 131.992)" stroke="black"/>
<line y1="-0.5" x2="12.7275" y2="-0.5" transform="matrix(0.70713 -0.707084 0.70713 0.707084 326.975 131)" stroke="black"/>
<line y1="-0.5" x2="12.7275" y2="-0.5" transform="matrix(0.70713 -0.707084 0.70713 0.707084 376.977 143.992)" stroke="black"/>
<line y1="-0.5" x2="14.1417" y2="-0.5" transform="matrix(0.70713 -0.707084 0.70713 0.707084 340.975 115)" stroke="black"/>
<line y1="-0.5" x2="18.3842" y2="-0.5" transform="matrix(0.70713 -0.707084 0.70713 0.707084 326.975 123)" stroke="black"/>
<line y1="-0.5" x2="22.6267" y2="-0.5" transform="matrix(0.70713 -0.707084 0.70713 0.707084 344.973 125.992)" stroke="black"/>
<line y1="-0.5" x2="29.6975" y2="-0.5" transform="matrix(0.70713 -0.707084 0.70713 0.707084 346.977 141)" stroke="black"/>
<line y1="-0.5" x2="12.7275" y2="-0.5" transform="matrix(0.70713 -0.707084 0.70713 0.707084 359.973 119.008)" stroke="black"/>
<line y1="-0.5" x2="12.7275" y2="-0.5" transform="matrix(0.70713 -0.707084 0.70713 0.707084 359.973 119.008)" stroke="black"/>
<line y1="-0.5" x2="7.07084" y2="-0.5" transform="matrix(0.70713 -0.707084 0.70713 0.707084 326.975 113.992)" stroke="black"/>
<line y1="-0.5" x2="14.1417" y2="-0.5" transform="matrix(-0.70713 0.707084 -0.70713 -0.707084 370.973 153)" stroke="black"/>
<line y1="-0.5" x2="18.3842" y2="-0.5" transform="matrix(-0.70713 0.707084 -0.70713 -0.707084 384.977 145)" stroke="black"/>
<line y1="-0.5" x2="7.07084" y2="-0.5" transform="matrix(-0.70713 0.707084 -0.70713 -0.707084 384.977 154.008)" stroke="black"/>
<rect x="238.477" y="104.5" width="59" height="59" fill="white" stroke="black"/>
<line x1="267.475" y1="134" x2="267.475" y2="163" stroke="black" stroke-width="3"/>
<line x1="296.977" y1="134.5" x2="265.977" y2="134.5" stroke="black" stroke-width="3"/>
<path d="M33.4473 548.069V501.761L301.82 346L568.088 501.761V548.069L301.82 703.83L33.4473 548.069Z" fill="white" stroke="black"/>
<path d="M301.82 346L33.4473 501.761L301.82 657.523L568.088 501.761L301.82 346Z" fill="white" stroke="black"/>
<path d="M301.834 703.979V657.672" stroke="black"/>
<g filter="url(#filter0_f_3496_3640)">
<path d="M32.458 548.277L4.51404 563.853C3.83624 564.231 3.82832 565.203 4.4999 565.592L272.452 720.713C272.759 720.891 273.137 720.893 273.446 720.718L300.945 705.15C301.617 704.769 301.622 703.802 300.954 703.414L33.4466 548.285C33.1416 548.108 32.766 548.105 32.458 548.277Z" fill="#999898" fill-opacity="0.3"/>
</g>
<path d="M33.9473 502.5V548L301.947 703.5V658L33.9473 502.5Z" fill="#D9D9D9"/>
<path d="M32.9766 549L32.9765 37L61.9766 37" stroke="black" stroke-width="2"/>
<path d="M268.977 1V73H62.9766V1H268.977Z" fill="white" fill-opacity="0.9" stroke="#231F20" stroke-width="2"/>
<path d="M93.1839 33.3438C93.1044 32.5994 92.7692 32.0199 92.1783 31.6051C91.593 31.1903 90.8317 30.983 89.8942 30.983C89.2351 30.983 88.6697 31.0824 88.1982 31.2812C87.7266 31.4801 87.3658 31.75 87.1158 32.0909C86.8658 32.4318 86.7379 32.821 86.7322 33.2585C86.7322 33.6222 86.8146 33.9375 86.9794 34.2045C87.1499 34.4716 87.38 34.6989 87.6697 34.8864C87.9595 35.0682 88.2805 35.2216 88.6328 35.3466C88.9851 35.4716 89.3402 35.5767 89.6982 35.6619L91.3345 36.071C91.9936 36.2244 92.6271 36.4318 93.2351 36.6932C93.8487 36.9545 94.397 37.2841 94.88 37.6818C95.3686 38.0795 95.755 38.5597 96.0391 39.1222C96.3232 39.6847 96.4652 40.3437 96.4652 41.0994C96.4652 42.1222 96.2038 43.0227 95.6811 43.8011C95.1584 44.5739 94.4027 45.179 93.4141 45.6165C92.4311 46.0483 91.2408 46.2642 89.843 46.2642C88.4851 46.2642 87.3061 46.054 86.3061 45.6335C85.3118 45.2131 84.5334 44.5994 83.9709 43.7926C83.4141 42.9858 83.1129 42.0028 83.0675 40.8438H86.1783C86.2237 41.4517 86.4112 41.9574 86.7408 42.3608C87.0703 42.7642 87.4993 43.0653 88.0277 43.2642C88.5618 43.4631 89.1584 43.5625 89.8175 43.5625C90.505 43.5625 91.1072 43.4602 91.6243 43.2557C92.147 43.0455 92.5561 42.7557 92.8516 42.3864C93.147 42.0114 93.2976 41.5739 93.3033 41.0739C93.2976 40.6193 93.1641 40.2443 92.9027 39.9489C92.6413 39.6477 92.2749 39.3977 91.8033 39.1989C91.3374 38.9943 90.7919 38.8125 90.1669 38.6534L88.1811 38.142C86.7436 37.7727 85.6072 37.2131 84.772 36.4631C83.9425 35.7074 83.5277 34.7045 83.5277 33.4545C83.5277 32.4261 83.8061 31.5256 84.3629 30.7528C84.9254 29.9801 85.6896 29.3807 86.6555 28.9545C87.6214 28.5227 88.7152 28.3068 89.9368 28.3068C91.1754 28.3068 92.2607 28.5227 93.1925 28.9545C94.13 29.3807 94.8658 29.9744 95.3999 30.7358C95.9339 31.4915 96.2095 32.3608 96.2266 33.3438H93.1839ZM99.1477 46V32.9091H102.233V46H99.1477ZM100.699 31.0511C100.21 31.0511 99.7898 30.8892 99.4375 30.5653C99.0852 30.2358 98.9091 29.8409 98.9091 29.3807C98.9091 28.9148 99.0852 28.5199 99.4375 28.196C99.7898 27.8665 100.21 27.7017 100.699 27.7017C101.193 27.7017 101.614 27.8665 101.96 28.196C102.313 28.5199 102.489 28.9148 102.489 29.3807C102.489 29.8409 102.313 30.2358 101.96 30.5653C101.614 30.8892 101.193 31.0511 100.699 31.0511ZM107.928 32.9091L110.57 37.7415L113.255 32.9091H116.519L112.573 39.4545L116.587 46H113.34L110.57 41.2869L107.826 46H104.553L108.542 39.4545L104.656 32.9091H107.928ZM127.671 41.892L127.663 38.1676H128.157L132.862 32.9091H136.467L130.68 39.3523H130.04L127.671 41.892ZM124.859 46V28.5455H127.944V46H124.859ZM133.075 46L128.813 40.0426L130.893 37.8693L136.765 46H133.075ZM143.779 46.2557C142.467 46.2557 141.333 45.983 140.379 45.4375C139.43 44.8864 138.7 44.108 138.188 43.1023C137.677 42.0909 137.421 40.9006 137.421 39.5312C137.421 38.1847 137.677 37.0028 138.188 35.9858C138.705 34.9631 139.427 34.1676 140.353 33.5994C141.279 33.0256 142.367 32.7386 143.617 32.7386C144.424 32.7386 145.185 32.8693 145.901 33.1307C146.623 33.3864 147.259 33.7841 147.81 34.3239C148.367 34.8636 148.805 35.5511 149.123 36.3864C149.441 37.2159 149.6 38.2045 149.6 39.3523V40.2983H138.87V38.2188H146.643C146.637 37.6278 146.509 37.1023 146.259 36.642C146.009 36.1761 145.66 35.8097 145.211 35.5426C144.768 35.2756 144.251 35.142 143.66 35.142C143.029 35.142 142.475 35.2955 141.998 35.6023C141.521 35.9034 141.148 36.3011 140.881 36.7955C140.62 37.2841 140.487 37.821 140.481 38.4062V40.2216C140.481 40.983 140.62 41.6364 140.898 42.1818C141.177 42.7216 141.566 43.1364 142.066 43.4261C142.566 43.7102 143.151 43.8523 143.822 43.8523C144.271 43.8523 144.677 43.7898 145.04 43.6648C145.404 43.5341 145.719 43.3438 145.987 43.0938C146.254 42.8438 146.455 42.5341 146.592 42.1648L149.472 42.4886C149.29 43.25 148.944 43.9148 148.433 44.483C147.927 45.0455 147.279 45.483 146.489 45.7955C145.7 46.1023 144.796 46.2557 143.779 46.2557ZM153.753 50.9091C153.332 50.9091 152.943 50.875 152.585 50.8068C152.233 50.7443 151.952 50.6705 151.741 50.5852L152.457 48.1818C152.906 48.3125 153.307 48.375 153.659 48.3693C154.011 48.3636 154.321 48.2528 154.588 48.0369C154.861 47.8267 155.091 47.4744 155.278 46.9801L155.543 46.2727L150.795 32.9091H154.068L157.085 42.7955H157.222L160.247 32.9091H163.528L158.287 47.5852C158.043 48.2784 157.719 48.8722 157.315 49.3665C156.912 49.8665 156.418 50.2472 155.832 50.5085C155.253 50.7756 154.56 50.9091 153.753 50.9091ZM178.247 32.9091V35.2955H170.509V32.9091H178.247ZM172.443 46V31.6733C172.443 30.7926 172.625 30.0597 172.989 29.4744C173.358 28.8892 173.852 28.4517 174.472 28.1619C175.091 27.8722 175.778 27.7273 176.534 27.7273C177.068 27.7273 177.543 27.7699 177.957 27.8551C178.372 27.9403 178.679 28.017 178.878 28.0852L178.264 30.4716C178.134 30.4318 177.969 30.392 177.77 30.3523C177.571 30.3068 177.349 30.2841 177.105 30.2841C176.531 30.2841 176.125 30.4233 175.886 30.7017C175.653 30.9744 175.537 31.3665 175.537 31.8778V46H172.443ZM183.985 46.2642C183.156 46.2642 182.408 46.1165 181.744 45.821C181.085 45.5199 180.562 45.0767 180.175 44.4915C179.795 43.9062 179.604 43.1847 179.604 42.3267C179.604 41.5881 179.741 40.9773 180.013 40.4943C180.286 40.0114 180.658 39.625 181.13 39.3352C181.602 39.0455 182.133 38.8267 182.724 38.679C183.32 38.5256 183.937 38.4148 184.573 38.3466C185.34 38.267 185.962 38.196 186.44 38.1335C186.917 38.0653 187.263 37.9631 187.479 37.8267C187.701 37.6847 187.812 37.4659 187.812 37.1705V37.1193C187.812 36.4773 187.621 35.9801 187.241 35.6278C186.86 35.2756 186.312 35.0994 185.596 35.0994C184.84 35.0994 184.241 35.2642 183.798 35.5938C183.36 35.9233 183.065 36.3125 182.911 36.7614L180.031 36.3523C180.258 35.5568 180.633 34.892 181.156 34.358C181.678 33.8182 182.317 33.4148 183.073 33.1477C183.829 32.875 184.664 32.7386 185.579 32.7386C186.21 32.7386 186.837 32.8125 187.462 32.9602C188.087 33.108 188.658 33.3523 189.175 33.6932C189.692 34.0284 190.107 34.4858 190.42 35.0653C190.738 35.6449 190.897 36.3693 190.897 37.2386V46H187.931V44.2017H187.829C187.641 44.5653 187.377 44.9062 187.036 45.2244C186.701 45.5369 186.278 45.7898 185.766 45.983C185.261 46.1705 184.667 46.2642 183.985 46.2642ZM184.786 43.9972C185.406 43.9972 185.942 43.875 186.397 43.6307C186.852 43.3807 187.201 43.0511 187.445 42.642C187.695 42.233 187.82 41.7869 187.82 41.304V39.7614C187.724 39.8409 187.559 39.9148 187.326 39.983C187.099 40.0511 186.843 40.1108 186.559 40.1619C186.275 40.2131 185.994 40.2585 185.715 40.2983C185.437 40.3381 185.195 40.3722 184.991 40.4006C184.531 40.4631 184.119 40.5653 183.755 40.7074C183.391 40.8494 183.104 41.0483 182.894 41.304C182.684 41.554 182.579 41.8778 182.579 42.2756C182.579 42.8438 182.786 43.2727 183.201 43.5625C183.616 43.8523 184.144 43.9972 184.786 43.9972ZM199.71 46.2557C198.403 46.2557 197.281 45.9688 196.343 45.3949C195.411 44.821 194.692 44.0284 194.187 43.017C193.687 42 193.437 40.8295 193.437 39.5057C193.437 38.1761 193.692 37.0028 194.204 35.9858C194.715 34.9631 195.437 34.1676 196.369 33.5994C197.306 33.0256 198.414 32.7386 199.692 32.7386C200.755 32.7386 201.695 32.9347 202.513 33.3267C203.337 33.7131 203.994 34.2614 204.482 34.9716C204.971 35.6761 205.249 36.5 205.317 37.4432H202.369C202.249 36.8125 201.965 36.2869 201.516 35.8665C201.073 35.4403 200.479 35.2273 199.735 35.2273C199.104 35.2273 198.55 35.3977 198.073 35.7386C197.596 36.0739 197.224 36.5568 196.957 37.1875C196.695 37.8182 196.565 38.5739 196.565 39.4545C196.565 40.3466 196.695 41.1136 196.957 41.7557C197.218 42.392 197.585 42.8835 198.056 43.2301C198.533 43.571 199.093 43.7415 199.735 43.7415C200.19 43.7415 200.596 43.6562 200.954 43.4858C201.317 43.3097 201.621 43.0568 201.866 42.7273C202.11 42.3977 202.278 41.9972 202.369 41.5256H205.317C205.244 42.4517 204.971 43.2727 204.499 43.9886C204.028 44.6989 203.386 45.2557 202.573 45.6591C201.761 46.0568 200.806 46.2557 199.71 46.2557ZM214.388 32.9091V35.2955H206.862V32.9091H214.388ZM208.72 29.7727H211.805V42.0625C211.805 42.4773 211.868 42.7955 211.993 43.017C212.124 43.233 212.294 43.3807 212.504 43.4602C212.714 43.5398 212.947 43.5795 213.203 43.5795C213.396 43.5795 213.572 43.5653 213.732 43.5369C213.896 43.5085 214.021 43.483 214.107 43.4602L214.626 45.8722C214.462 45.929 214.226 45.9915 213.919 46.0597C213.618 46.1278 213.249 46.1676 212.811 46.179C212.038 46.2017 211.342 46.0852 210.723 45.8295C210.104 45.5682 209.612 45.1648 209.249 44.6193C208.891 44.0739 208.714 43.392 208.72 42.5739V29.7727ZM222.538 46.2557C221.259 46.2557 220.151 45.9744 219.214 45.4119C218.276 44.8494 217.549 44.0625 217.032 43.0511C216.521 42.0398 216.265 40.858 216.265 39.5057C216.265 38.1534 216.521 36.9687 217.032 35.9517C217.549 34.9347 218.276 34.1449 219.214 33.5824C220.151 33.0199 221.259 32.7386 222.538 32.7386C223.816 32.7386 224.924 33.0199 225.862 33.5824C226.799 34.1449 227.523 34.9347 228.035 35.9517C228.552 36.9687 228.81 38.1534 228.81 39.5057C228.81 40.858 228.552 42.0398 228.035 43.0511C227.523 44.0625 226.799 44.8494 225.862 45.4119C224.924 45.9744 223.816 46.2557 222.538 46.2557ZM222.555 43.7841C223.248 43.7841 223.827 43.5937 224.293 43.2131C224.759 42.8267 225.106 42.3097 225.333 41.6619C225.566 41.0142 225.683 40.2926 225.683 39.4972C225.683 38.696 225.566 37.9716 225.333 37.3239C225.106 36.6705 224.759 36.1506 224.293 35.7642C223.827 35.3778 223.248 35.1847 222.555 35.1847C221.844 35.1847 221.254 35.3778 220.782 35.7642C220.316 36.1506 219.967 36.6705 219.734 37.3239C219.506 37.9716 219.393 38.696 219.393 39.4972C219.393 40.2926 219.506 41.0142 219.734 41.6619C219.967 42.3097 220.316 42.8267 220.782 43.2131C221.254 43.5937 221.844 43.7841 222.555 43.7841ZM231.429 46V32.9091H234.42V35.0909H234.557C234.795 34.3352 235.205 33.7528 235.784 33.3438C236.369 32.929 237.037 32.7216 237.787 32.7216C237.957 32.7216 238.148 32.7301 238.358 32.7472C238.574 32.7585 238.753 32.7784 238.895 32.8068V35.6449C238.764 35.5994 238.557 35.5597 238.273 35.5256C237.994 35.4858 237.724 35.4659 237.463 35.4659C236.901 35.4659 236.395 35.5881 235.946 35.8324C235.503 36.071 235.153 36.4034 234.898 36.8295C234.642 37.2557 234.514 37.7472 234.514 38.304V46H231.429ZM251.291 36.3693L248.479 36.6761C248.399 36.392 248.26 36.125 248.061 35.875C247.868 35.625 247.607 35.4233 247.277 35.2699C246.947 35.1165 246.544 35.0398 246.067 35.0398C245.425 35.0398 244.885 35.179 244.447 35.4574C244.016 35.7358 243.803 36.0966 243.808 36.5398C243.803 36.9205 243.942 37.2301 244.226 37.4688C244.516 37.7074 244.993 37.9034 245.658 38.0568L247.891 38.5341C249.129 38.8011 250.05 39.2244 250.652 39.804C251.26 40.3835 251.567 41.142 251.572 42.0795C251.567 42.9034 251.325 43.6307 250.848 44.2614C250.376 44.8864 249.72 45.375 248.879 45.7273C248.038 46.0795 247.072 46.2557 245.982 46.2557C244.379 46.2557 243.089 45.9205 242.112 45.25C241.135 44.5739 240.553 43.6335 240.365 42.429L243.374 42.1392C243.51 42.7301 243.8 43.1761 244.243 43.4773C244.686 43.7784 245.263 43.929 245.973 43.929C246.706 43.929 247.294 43.7784 247.737 43.4773C248.186 43.1761 248.411 42.804 248.411 42.3608C248.411 41.9858 248.266 41.6761 247.976 41.4318C247.692 41.1875 247.249 41 246.646 40.8693L244.413 40.4006C243.158 40.1392 242.229 39.6989 241.626 39.0795C241.024 38.4545 240.726 37.6648 240.732 36.7102C240.726 35.9034 240.945 35.2045 241.388 34.6136C241.837 34.017 242.459 33.5568 243.254 33.233C244.055 32.9034 244.979 32.7386 246.024 32.7386C247.558 32.7386 248.766 33.0653 249.646 33.7188C250.533 34.3722 251.081 35.2557 251.291 36.3693Z" fill="black"/>
<defs>
<filter id="filter0_f_3496_3640" x="0" y="544.148" width="305.453" height="180.703" filterUnits="userSpaceOnUse" color-interpolation-filters="sRGB">
<feFlood flood-opacity="0" result="BackgroundImageFix"/>
<feBlend mode="normal" in="SourceGraphic" in2="BackgroundImageFix" result="shape"/>
<feGaussianBlur stdDeviation="2" result="effect1_foregroundBlur_3496_3640"/>
</filter>
</defs>
</svg>
